<svg xmlns="http://www.w3.org/2000/svg" viewBox="0 0 100 120" width="100" height="120">
  <defs>
    <linearGradient id="goldGrad" x1="0%" y1="0%" x2="100%" y2="100%">
      <stop offset="0%" stop-color="#FFE48A" />
      <stop offset="50%" stop-color="#F5BA23" />
      <stop offset="100%" stop-color="#B87C00" />
    </linearGradient>
    <filter id="goldGlow" x="-20%" y="-20%" width="140%" height="140%">
      <feDropShadow dx="0" dy="2" stdDeviation="3" flood-color="#F5BA23" flood-opacity="0.4"/>
    </filter>
  </defs>
  <g filter="url(#goldGlow)">
    <!-- Central Spearhead -->
    <path d="M 50 5 L 60 30 L 54 32 L 54 82 L 60 82 L 60 90 L 40 90 L 40 82 L 46 82 L 46 32 L 40 30 Z" fill="url(#goldGrad)" />
    <!-- Left Curve Wing -->
    <path d="M 46 58 C 28 58 18 42 18 25 C 18 20 14 14 10 14 C 15 24 24 34 32 38 L 32 54 C 32 68 40 76 46 78 Z" fill="url(#goldGrad)" />
    <!-- Left Outer Barbs -->
    <path d="M 10 14 L 20 32 L 16 34 L 18 48 C 18 36 13 26 10 14 Z" fill="url(#goldGrad)" />
    <!-- Right Curve Wing -->
    <path d="M 54 58 C 72 58 82 42 82 25 C 82 20 86 14 90 14 C 85 24 76 34 68 38 L 68 54 C 68 68 60 76 54 78 Z" fill="url(#goldGrad)" />
    <!-- Right Outer Barbs -->
    <path d="M 90 14 L 80 32 L 84 34 L 82 48 C 82 36 87 26 90 14 Z" fill="url(#goldGrad)" />
    <!-- Base Base Rings -->
    <rect x="41" y="93" width="18" height="6" rx="2" fill="url(#goldGrad)" />
    <rect x="43" y="102" width="14" height="7" rx="3" fill="url(#goldGrad)" />
  </g>
</svg>
